<?xml version="1.0" encoding="utf-8"?>
<!-- Generator: Adobe Illustrator 25.4.1, SVG Export Plug-In . SVG Version: 6.00 Build 0)  -->
<svg version="1.1" id="Layer_1" xmlns="http://www.w3.org/2000/svg" xmlns:xlink="http://www.w3.org/1999/xlink" x="0px" y="0px"
	 viewBox="0 0 404.8 122.5" style="enable-background:new 0 0 404.8 122.5;" xml:space="preserve">
<style type="text/css">
	.st0{fill:#FFFFFF;}
</style>
<path class="st0" d="M345.8,4.5c-26.8,0-48.1,12.1-53.6,33.6c-5.5-21.4-26.8-33.6-53.6-33.6c-24.4,0-44.2,10-51.7,27.9
	c-7.6-17.9-27.4-27.9-51.7-27.9c-31.2,0-55,16.5-55,45.1c0,7.2,1.5,13.6,4.3,19.2c-5.4,2.5-13,3.9-19.8,3.9
	c-14.2,0-26.9-8.9-26.9-22.6c0-14.9,11-24.8,25.1-24.8c4.4,0,7.8,0.9,11.7,2.5c3-6.7,7.4-12.7,13.1-17.7c-8-3.5-17-5.6-28.8-5.6
	C27.8,4.5,4,21,4,49.6C4,78,27.8,94.5,59,94.5c15.2,0,28.5-3.7,39.1-10.1c10.9,6.8,22.2,10.1,37,10.1c24.3,0,44.1-10,51.7-27.9
	c7.6,17.8,27.4,27.9,51.7,27.9c24.9,0,45-10.5,52.2-29.1v52h33.6V91.6c6.6,1.9,13.8,2.9,21.4,2.9c31.2,0,55-16.5,55-44.9
	C400.8,21,377,4.5,345.8,4.5z M135.1,73.7c-15.1,0-21.2-11.4-21.2-24.1c0-12.9,6.2-24.3,21.2-24.3c15.1,0,21.2,11.4,21.2,24.3
	C156.4,62.3,150.2,73.7,135.1,73.7z M238.6,73.7c-15.1,0-21.2-11.4-21.2-24.1c0-12.9,6.2-24.3,21.2-24.3c15,0,21.2,11.4,21.2,24.3
	C259.8,62.3,253.6,73.7,238.6,73.7z M345.8,73.7c-15.1,0-21.3-11.4-21.3-24.1c0-12.9,6.2-24.3,21.3-24.3c15,0,21.2,11.4,21.2,24.3
	C367,62.3,360.8,73.7,345.8,73.7z"/>
</svg>
