<?xml version="1.0" encoding="UTF-8"?><svg id="Layer_1" xmlns="http://www.w3.org/2000/svg" viewBox="0 0 934.96 300.17"><defs><style>.cls-1{fill:#036;}</style></defs><path class="cls-1" d="m712.25,191.4c-30.46,0-42.92-22.98-42.92-48.61s12.46-49.06,42.92-49.06,42.87,23,42.87,49.06-12.49,48.61-42.87,48.61m-216.37,0c-30.46,0-42.89-22.98-42.89-48.61s12.43-49.06,42.89-49.06,42.85,23,42.85,49.06-12.49,48.61-42.85,48.61m-208.83,0c-30.42,0-42.85-22.98-42.85-48.61s12.44-49.06,42.85-49.06,42.89,23,42.89,49.06-12.45,48.61-42.89,48.61M133.34,51.78c-63.04,0-111.07,33.32-111.07,91.01s48.03,90.63,111.07,90.63c16.66,0,35.23-2.4,51.13-6.88,5.95-1.47,19.97-6.26,30.19-12.2,19.21,12.43,44.29,19.08,72.38,19.08,49.11,0,89.12-20.29,104.41-56.32,15.26,36.03,55.25,56.32,104.41,56.32s90.82-21.18,105.33-58.7v104.95h67.79v-52.17c13.23,3.87,27.79,5.92,43.25,5.92,63.04,0,111.1-33.38,111.1-90.63s-48.05-91.01-111.1-91.01c-54.1,0-97,24.51-108.24,67.74-11.17-43.23-54.12-67.74-108.13-67.74-49.17,0-89.15,20.21-104.41,56.41-15.3-36.2-55.3-56.41-104.41-56.41-63.05,0-111.06,33.32-111.06,91.01,0,14.49,3.09,27.39,8.72,38.68-.73.38-1.44.67-2.19,1-2.87,1.14-6.01,2.2-9.45,3.18-8.68,2.4-18.52,3.76-28.34,3.76-28.59,0-54.26-17.97-54.26-45.68,0-30,21.98-47.98,50.57-47.98,8.78,0,16.43.93,23.55,2.9,0,0,8.11-20.5,26.78-35.59-16.71-7.41-36.49-11.29-58.01-11.29-63.05,0-111.06,33.32-111.06,91.01"/></svg>